<svg width="53" height="54" viewBox="0 0 53 54" fill="none" xmlns="http://www.w3.org/2000/svg">
    <path d="M22.6187 47.9747V6.02569C22.6187 2.04319 20.98 0.450195 16.84 0.450195H6.40375C2.26375 0.450195 0.625 2.04319 0.625 6.02569V47.9747C0.625 51.9572 2.26375 53.5502 6.40375 53.5502H16.84C20.98 53.5502 22.6187 51.9572 22.6187 47.9747ZM52.3808 47.9747V6.02569C52.3808 2.04319 50.742 0.450195 46.602 0.450195H36.1658C32.0545 0.450195 30.387 2.04319 30.387 6.02569V47.9747C30.387 51.9572 32.0258 53.5502 36.1658 53.5502H46.602C50.742 53.5502 52.3808 51.9572 52.3808 47.9747Z" fill="#F6BB11"/>
</svg>
