<svg width="59" height="60" viewBox="0 0 59 60" fill="none" xmlns="http://www.w3.org/2000/svg">
    <path d="M29.4109 0.5C13.5409 0.5 0.660889 13.716 0.660889 30C0.660889 46.284 13.5409 59.5 29.4109 59.5C45.2809 59.5 58.1609 46.284 58.1609 30C58.1609 13.716 45.3096 0.5 29.4109 0.5V0.5ZM38.0359 36.5785L29.6984 41.505C28.6947 42.1052 27.5538 42.4214 26.3921 42.4214C25.2305 42.4214 24.0896 42.1052 23.0859 41.505C22.0742 40.911 21.2348 40.0514 20.6538 39.0146C20.0728 37.9778 19.7711 36.801 19.7796 35.605V25.7225C19.7796 23.274 21.0159 21.0615 23.0859 19.8225C25.1559 18.5835 27.6284 18.5835 29.7271 19.8225L38.0646 24.749C40.1346 25.988 41.3709 28.171 41.3709 30.649C41.3709 33.127 40.1346 35.3395 38.0359 36.5785V36.5785Z" fill="#F6BB11"/>
</svg>
