<svg width="31" height="49" viewBox="0 0 31 49" fill="none" xmlns="http://www.w3.org/2000/svg">
    <path d="M10.792 24L15 33.5277L4 38" stroke="#282828" stroke-width="1.61476" stroke-linecap="round" stroke-linejoin="round"/>
    <path d="M16 47L9 30.4255L16 25" stroke="#282828" stroke-width="1.61476" stroke-linecap="round" stroke-linejoin="round"/>
    <path d="M15 47L22 30.4255L15 25" stroke="#282828" stroke-width="1.61476" stroke-linecap="round" stroke-linejoin="round"/>
    <path d="M19.2878 24L15 33.5853C15 33.5853 24.4602 37.382 26 38" stroke="#282828" stroke-width="1.61476" stroke-linecap="round" stroke-linejoin="round"/>
    <path d="M2 42L15.0001 15L28 42" stroke="#282828" stroke-width="1.61476" stroke-linecap="round" stroke-linejoin="round"/>
    <path d="M15 15V47.5761" stroke="#282828" stroke-width="1.61476" stroke-linecap="round" stroke-linejoin="round"/>
    <path d="M10.2139 21.243C8.64248 19.8219 7.65283 17.7738 7.65283 15.4927C7.65283 11.2025 11.1432 7.72461 15.4488 7.72461C19.7544 7.72461 23.2447 11.2025 23.2447 15.4927C23.2447 17.743 22.2833 19.7686 20.7486 21.1872" stroke="#282828" stroke-width="1.61476" stroke-linecap="round" stroke-linejoin="round"/>
    <path d="M22.2555 24.3398C24.919 22.3019 26.6369 19.0982 26.6369 15.4935C26.6369 9.33634 21.6277 4.34521 15.4485 4.34521C9.26941 4.34521 4.26013 9.33634 4.26013 15.4935C4.26013 19.1285 6.0062 22.3571 8.70825 24.3922" stroke="#282828" stroke-width="1.61476" stroke-linecap="round" stroke-linejoin="round"/>
    <path d="M23.7452 27.4548C27.5243 24.835 30 20.4647 30 15.5147C30 7.49854 23.5082 1 15.5001 1C7.49183 1 1 7.49854 1 15.5147C1 20.461 3.47266 24.8281 7.24712 27.4484" stroke="#282828" stroke-width="1.61476" stroke-linecap="round" stroke-linejoin="round"/>
    <path d="M19.8215 15.2883C19.8215 17.6773 17.8865 19.6141 15.4999 19.6141C13.1132 19.6141 11.1785 17.6773 11.1785 15.2883C11.1785 12.8992 13.1132 10.9624 15.4999 10.9624C17.8865 10.9624 19.8215 12.8992 19.8215 15.2883Z" fill="#F6BB11" stroke="#282828" stroke-width="1.61476" stroke-linejoin="round"/>
</svg>
