<svg width="22" height="18" viewBox="0 0 22 18" fill="none" xmlns="http://www.w3.org/2000/svg">
    <path d="M21.0673 9.75016H17.0551C16.6438 9.75016 16.3028 9.41016 16.3028 9.00016C16.3028 8.59017 16.6438 8.25016 17.0551 8.25016H21.0673C21.4786 8.25016 21.8196 8.59017 21.8196 9.00016C21.8196 9.41016 21.4786 9.75016 21.0673 9.75016ZM13.0629 0.782165C11.9395 0.162165 10.5051 0.322165 9.04064 1.23217L6.11171 3.06217C5.91109 3.18216 5.68039 3.25217 5.44969 3.25217H4.01531C1.58791 3.25217 0.253845 4.58216 0.253845 7.00216V11.0022C0.253845 13.4222 1.58791 14.7522 4.01531 14.7522H5.44969C5.68039 14.7522 5.91109 14.8222 6.11171 14.9422L9.04064 16.7722C9.92333 17.3222 10.786 17.5922 11.5884 17.5922C12.1036 17.5967 12.6113 17.4693 13.0629 17.2222C14.1763 16.6022 14.7982 15.3122 14.7982 13.5922V4.41217C14.7982 2.69217 14.1763 1.40217 13.0629 0.782165Z" fill="black"/>
</svg>
