<svg width="22" height="18" viewBox="0 0 22 18" fill="none" xmlns="http://www.w3.org/2000/svg">
    <path d="M20.9939 8.25016H19.7401V7.00016C19.7401 6.59017 19.399 6.25016 18.9878 6.25016C18.5765 6.25016 18.2355 6.59017 18.2355 7.00016V8.25016H16.9816C16.5704 8.25016 16.2294 8.59017 16.2294 9.00016C16.2294 9.41016 16.5704 9.75016 16.9816 9.75016H18.2355V11.0002C18.2355 11.4102 18.5765 11.7502 18.9878 11.7502C19.399 11.7502 19.7401 11.4102 19.7401 11.0002V9.75016H20.9939C21.4051 9.75016 21.7462 9.41016 21.7462 9.00016C21.7462 8.59017 21.4051 8.25016 20.9939 8.25016ZM12.9895 0.782165C11.866 0.162165 10.4317 0.322165 8.96721 1.23217L6.03828 3.06217C5.83767 3.18216 5.60696 3.25217 5.37626 3.25217H3.94189C1.51449 3.25217 0.18042 4.58216 0.18042 7.00216V11.0022C0.18042 13.4222 1.51449 14.7522 3.94189 14.7522H5.37626C5.60696 14.7522 5.83767 14.8222 6.03828 14.9422L8.96721 16.7722C9.8499 17.3222 10.7125 17.5922 11.515 17.5922C12.0301 17.5967 12.5378 17.4693 12.9895 17.2222C14.1029 16.6022 14.7248 15.3122 14.7248 13.5922V4.41217C14.7248 2.69217 14.1029 1.40217 12.9895 0.782165Z" fill="black"/>
</svg>
